<svg xmlns="http://www.w3.org/2000/svg" width="30.165" height="26.043" viewBox="0 0 30.165 26.043">
  <path id="Instagram-Like-Icon-83nfc3" d="M141.76,2.614a6.629,6.629,0,0,1,3.494,1.013,8.2,8.2,0,0,1,2.627,10.711c-1.434,2.681-7.4,7.694-12.5,11.5a.423.423,0,0,1-.231.077.432.432,0,0,1-.246-.077c-5.1-3.807-11.06-8.82-12.494-11.5a8.2,8.2,0,0,1,2.619-10.711,6.669,6.669,0,0,1,3.494-1.013,6.881,6.881,0,0,1,5.524,2.861l1.1,1.483,1.1-1.483a6.867,6.867,0,0,1,5.516-2.861m0-1.373a8.245,8.245,0,0,0-6.611,3.417,8.3,8.3,0,0,0-6.627-3.417,7.964,7.964,0,0,0-4.22,1.226,9.573,9.573,0,0,0-3.1,12.522c1.916,3.569,9.982,9.775,12.887,11.95a1.8,1.8,0,0,0,2.114,0c2.912-2.176,10.986-8.382,12.887-11.95a9.573,9.573,0,0,0-3.1-12.522,7.944,7.944,0,0,0-4.22-1.226" transform="translate(-120.058 -1.241)"/>
</svg>
